<svg width="150" height="150" viewBox="0 0 150 150" fill="none" xmlns="http://www.w3.org/2000/svg">
<path d="M0 1.87964V148.12H150V1.87964H0ZM6.24844 8.12808H143.747V141.867H6.24844V8.12808ZM52.0266 84.6937L47.0719 103.42C46.9734 103.959 46.7766 104.053 46.1672 104.053H36.9891C36.3562 104.053 36.2578 103.856 36.3563 103.148L54.1031 40.9921C54.4219 39.8671 54.6141 38.8687 54.7125 35.7656C54.7125 35.3484 54.9328 35.1562 55.2516 35.1562H68.3391C68.7563 35.1562 68.9719 35.2546 69.0703 35.7656L88.9687 103.247C89.0906 103.758 88.9688 104.053 88.4578 104.053H78.1547C77.6156 104.053 77.325 103.931 77.2266 103.514L72.0516 84.689H52.0078L52.0266 84.6937ZM69.4594 74.5359C67.7016 67.6265 63.5766 52.4906 62.0391 45.164H61.9172C60.6 52.4625 57.2766 64.8421 54.7172 74.5359H69.4594ZM97.5844 39.7968C97.5844 35.7703 100.369 33.3984 103.983 33.3984C107.794 33.3984 110.381 35.9859 110.381 39.7968C110.381 43.9218 107.695 46.1953 103.861 46.1953C100.125 46.1953 97.5609 43.9265 97.5609 39.7968H97.5844ZM98.2922 54.0046C98.2922 53.5171 98.4891 53.3203 99 53.3203H108.816C109.378 53.3203 109.57 53.5171 109.57 54.0515V103.392C109.57 103.903 109.472 104.1 108.839 104.1H99.1688C98.5359 104.1 98.3391 103.805 98.3391 103.294V54L98.2922 54.0046Z" fill="#F5F5F5"/>
</svg>
