<svg width="150" height="150" viewBox="0 0 150 150" fill="none" xmlns="http://www.w3.org/2000/svg">
<path d="M0 1.87964V148.12H150V1.87964H0ZM6.24844 8.12808H143.747V141.867H6.24844V8.12808ZM42.4078 84.6937L37.4531 103.345C37.3547 103.856 37.1344 104.053 36.525 104.053H27.3469C26.7375 104.053 26.6391 103.833 26.7375 103.125L44.4844 41.039C44.7797 39.914 44.9953 39.014 45.0937 35.9109C45.0937 35.4937 45.2906 35.2781 45.6047 35.2781H58.7156C59.1328 35.2781 59.325 35.4 59.4234 35.9109L79.3219 103.219C79.4203 103.73 79.3219 104.025 78.8109 104.025H68.5078C67.9969 104.025 67.6781 103.856 67.5797 103.439L62.4281 84.6656H42.4078V84.6937ZM59.9344 74.5359C58.1766 67.6265 53.9297 52.4671 52.3922 45.164H52.2938C50.9531 52.4625 47.5828 64.8421 44.9953 74.5359H59.9344ZM93.4312 80.9343C93.5531 89.4046 97.5562 95.0718 107.053 95.0718C110.766 95.0718 113.939 94.5843 117.234 93.1171C117.652 92.9203 117.966 93.0421 117.966 93.5578V101.395C117.966 102.005 117.769 102.323 117.333 102.642C114.038 104.278 109.936 105.009 104.784 105.009C88.2797 105.009 82.1016 92.85 82.1016 79.2281C82.1016 64.4812 89.7187 52.4203 103.148 52.4203C116.747 52.4203 121.481 63.8718 121.481 73.1484C121.481 76.1531 121.261 78.6187 120.97 79.7625C120.848 80.2734 120.652 80.4468 120.141 80.5453C118.894 80.7656 115.186 80.9625 109.716 80.9625H93.4312V80.9343ZM106.13 72.3375C109.327 72.3375 110.452 72.3375 110.77 72.239C110.77 71.8218 110.869 71.4562 110.869 71.1656C110.869 67.7484 109.209 61.4953 102.713 61.4953C96.7313 61.4953 94.1438 66.7687 93.5344 72.3375H106.13Z" fill="#F5F5F5"/>
</svg>
