<svg width="150" height="150" viewBox="0 0 150 150" fill="none" xmlns="http://www.w3.org/2000/svg">
<path d="M110.625 54.375C115.312 51.5625 118.594 47.3438 120.469 42.1875C122.344 37.0312 122.344 31.875 120.937 26.7188C119.531 21.5625 116.25 17.3438 112.031 14.0625C107.812 10.7812 102.187 9.375 97.0312 9.375H53.9062C48.2812 9.375 43.125 11.25 38.9062 14.0625C33.75 17.3438 30.9375 22.0312 29.0625 26.7188C27.6562 31.875 27.6562 37.5 29.5312 42.1875C31.4062 47.3438 34.6875 51.5625 39.375 54.375C36.0937 56.7188 32.8125 59.5312 30.9375 63.2812C29.0625 67.0312 28.125 70.7812 28.125 75C28.125 79.2188 29.0625 82.9688 30.9375 86.7188C32.8125 90.4688 35.625 93.2812 39.375 95.625C34.6875 98.4375 31.4062 102.656 29.5312 107.812C27.6562 112.969 27.6562 118.125 29.0625 123.281C30.4687 128.438 33.75 132.656 38.4375 135.938C42.6562 139.219 48.2812 140.625 53.4375 140.625C60 140.625 66.5625 137.812 71.7187 133.594C76.4062 128.906 79.2187 122.812 79.2187 116.25V93.75C83.9062 97.9688 90 100.312 96.0937 100.312H96.5625C102.187 100.312 107.344 98.4375 111.562 95.625C115.781 92.3438 119.062 88.125 120.469 82.9688C121.875 77.8125 121.875 72.6562 120 67.5C118.594 61.4062 114.844 57.1875 110.625 54.375ZM79.2187 17.3438H96.5625C98.9062 17.3438 101.25 17.3438 103.125 18.2812C105.469 19.2188 107.344 20.1562 108.75 22.0312C110.625 23.4375 111.562 25.3125 112.5 27.6562C113.437 30 113.906 31.875 113.906 34.2188C113.906 36.5625 113.437 38.9062 112.5 40.7812C111.562 42.6562 110.156 44.5312 108.75 46.4062C106.875 47.8125 105 49.2188 103.125 50.1562C100.781 51.0938 98.4375 51.0938 96.5625 51.0938H79.2187V17.3438ZM53.4375 17.3438H70.7812V50.1562H53.4375C49.2187 50.1562 45 48.2812 42.1875 45C38.9062 42.1875 37.5 37.9687 37.5 33.75C37.5 29.5312 39.375 25.3125 42.1875 22.5C45 19.6875 49.2187 17.8125 53.4375 17.3438ZM36.5625 75C36.5625 70.7812 38.4375 66.5625 41.7187 63.2812C45 60 49.2187 58.5938 53.9062 58.5938H71.25V91.4062H53.9062C49.2187 91.4062 45 89.5312 41.7187 86.7188C38.4375 83.4375 36.5625 79.2188 36.5625 75ZM70.7812 115.781C70.7812 120.469 68.9062 124.688 65.625 127.5C62.3437 130.781 58.125 132.188 53.4375 132.188C51.0937 132.188 48.75 132.188 46.875 131.25C44.5312 130.312 42.6562 129.375 41.25 127.969C39.375 126.562 38.4375 124.688 37.5 122.344C36.5625 120.469 36.0937 118.125 36.0937 115.781C36.0937 113.438 36.5625 111.094 37.5 109.219C38.4375 107.344 39.8437 105.469 41.25 103.594C43.125 102.188 45 100.781 46.875 99.8438C49.2187 98.9062 51.5625 98.9062 53.4375 98.9062H70.7812V115.781ZM96.5625 91.4062H96.0937C91.875 91.4062 87.6562 89.5312 84.8437 86.25C82.0312 82.9688 80.1562 79.2188 80.1562 75C80.1562 70.7812 82.0312 66.5625 84.8437 63.75C87.6562 60.4688 91.875 59.0625 96.0937 58.5938H96.5625C98.9062 58.5938 101.25 58.5938 103.125 59.5312C105.469 60.4688 107.344 61.4062 108.75 63.2812C110.625 64.6875 111.562 66.5625 112.5 68.9062C113.437 70.7812 113.906 73.125 113.906 75.4688C113.906 77.8125 113.437 80.1562 112.5 82.0312C111.562 83.9062 110.156 85.7812 108.75 87.6562C106.875 89.0625 105 90.4688 103.125 91.4062H96.5625Z" fill="#FED049"/>
</svg>
