<svg width="150" height="150" viewBox="0 0 150 150" fill="none" xmlns="http://www.w3.org/2000/svg">
<path d="M74.9719 14.0625C73.2609 14.0625 71.55 14.4844 70.0734 15.3281L23.625 42.1406C20.625 43.875 18.75 47.1562 18.75 50.625V99.2812C18.75 102.797 20.625 106.031 23.625 107.766L35.8125 114.797C41.7188 117.703 43.8281 117.703 46.5 117.703C55.2656 117.703 60.2812 112.406 60.2812 103.219V53.0156C60.2812 52.6551 60.138 52.3093 59.8831 52.0544C59.6282 51.7995 59.2824 51.6563 58.9219 51.6563H53.0625C52.8833 51.6537 52.7054 51.6872 52.5393 51.7546C52.3732 51.822 52.2224 51.922 52.0956 52.0488C51.9689 52.1755 51.8689 52.3264 51.8015 52.4924C51.734 52.6585 51.7006 52.8364 51.7031 53.0156V103.172C51.7031 107.297 47.4375 111.328 40.5469 107.906L27.7969 100.547C27.5682 100.424 27.3775 100.242 27.2452 100.019C27.113 99.7956 27.0444 99.5406 27.0469 99.2812V50.6719C27.0469 50.1094 27.3281 49.6406 27.7969 49.3594L74.25 22.5469C74.4674 22.4094 74.7193 22.3364 74.9766 22.3364C75.2338 22.3364 75.4857 22.4094 75.7031 22.5469L122.156 49.3594C122.625 49.6406 122.906 50.1094 122.906 50.625V99.2812C122.906 99.7969 122.625 100.312 122.203 100.547L75.7031 127.406C75.4782 127.521 75.2292 127.581 74.9766 127.581C74.7239 127.581 74.4749 127.521 74.25 127.406L62.2969 120.328C62.1363 120.21 61.9462 120.139 61.7476 120.122C61.549 120.106 61.3497 120.145 61.1719 120.234C57.8438 122.109 57.2344 122.344 54.1406 123.422C53.3906 123.656 52.2188 124.125 54.5625 125.438L70.0781 134.625C71.5781 135.469 73.2656 135.938 74.9531 135.938C76.6875 135.938 78.375 135.469 79.875 134.625L126.375 107.766C129.375 106.031 131.25 102.797 131.25 99.2812V50.6719C131.25 47.1563 129.375 43.9219 126.375 42.1875L79.875 15.3281C78.3938 14.4844 76.6875 14.0625 74.9719 14.0625ZM87.4688 51.5906C74.2031 51.5906 66.2812 57.2156 66.2812 66.5906C66.2812 76.7625 74.1563 79.5656 86.9063 80.8312C102.141 82.3312 103.313 84.5906 103.313 87.5906C103.313 92.7469 99.1406 94.95 89.3438 94.95C77.0156 94.95 74.2969 91.8516 73.4062 85.7578C73.3608 85.4431 73.2028 85.1556 72.9614 84.9487C72.72 84.7418 72.4117 84.6296 72.0938 84.6328H66.0469C65.6988 84.6328 65.3649 84.7711 65.1188 85.0172C64.8727 85.2634 64.7344 85.5972 64.7344 85.9453C64.7344 93.7734 69 103.102 89.3438 103.102C104.062 103.102 112.5 97.2891 112.5 87.1641C112.5 77.1328 105.703 74.4609 91.4531 72.5391C76.9688 70.6641 75.5156 69.6797 75.5156 66.3047C75.5156 63.4922 76.7812 59.7891 87.4688 59.7891C96.9844 59.7891 100.547 61.8516 102 68.2734C102.141 68.8828 102.656 69.3516 103.313 69.3516H109.359C109.734 69.3516 110.063 69.1641 110.344 68.8828C110.471 68.7459 110.567 68.5823 110.624 68.404C110.68 68.2257 110.697 68.037 110.672 67.8516C109.734 56.7891 102.375 51.5859 87.4688 51.5859V51.5906Z" fill="#FED049"/>
</svg>
