<svg width="150" height="150" viewBox="0 0 150 150" fill="none" xmlns="http://www.w3.org/2000/svg">
<path d="M0 1.87964V148.12H150V1.87964H0ZM6.24844 8.12808H143.747V141.867H6.24844V8.12808ZM36.2531 36.1312C36.2531 35.714 37.1344 35.4 37.6453 35.4C43.0141 35.1728 48.3874 35.0666 53.7609 35.0812C71.0953 35.0812 77.8313 44.5781 77.8313 56.7375C77.8313 72.6328 66.3094 79.4437 52.1953 79.4437C49.8047 79.4437 48.9984 79.3218 47.3391 79.3218V103.345C47.3391 103.856 47.1422 104.077 46.6312 104.077H36.9609C36.45 104.077 36.2531 103.88 36.2531 103.369V36.1312ZM47.3391 69.3375C48.7781 69.4359 49.9266 69.4359 52.4156 69.4359C59.7141 69.4359 66.6 66.8484 66.6 56.9625C66.6 49.0265 61.6688 45 53.3203 45C50.8547 45 48.4875 45.0984 47.3391 45.1968V69.3375ZM101.147 61.889C96.1922 61.889 94.5328 64.3781 94.5328 66.4312C94.5328 68.7 95.6578 70.2421 102.272 73.6593C112.064 78.4218 115.163 82.9359 115.163 89.6484C115.163 99.6328 107.522 105.005 97.2187 105.005C91.7484 105.005 87.0891 103.856 84.4031 102.319C84.0141 102.122 83.9156 101.808 83.9156 101.292V92.114C83.9156 91.5046 84.2109 91.2843 84.6234 91.6031C88.3645 94.0355 92.733 95.3256 97.1953 95.3156C102.15 95.3156 104.203 93.2625 104.203 90.4593C104.203 88.1906 102.764 86.2359 96.4875 82.9406C87.6 78.6937 83.8875 74.3718 83.8875 67.1437C83.8875 59.0859 90.1875 52.3968 101.1 52.3968C106.472 52.3968 110.255 53.2265 112.331 54.1312C112.842 54.45 112.941 54.9609 112.941 55.3781V63.9468C112.941 64.4578 112.622 64.7765 112.012 64.5562C109.228 62.9203 105.127 61.8703 101.123 61.8703L101.147 61.889Z" fill="#D6D5A8"/>
</svg>
