<svg width="150" height="150" viewBox="0 0 150 150" fill="none" xmlns="http://www.w3.org/2000/svg">
<path fill-rule="evenodd" clip-rule="evenodd" d="M53.15 18.37C49.15 17.21 46.2 17.52 44.05 18.69C41.89 19.85 40.01 22.16 38.79 26.14C37.57 30.15 37.16 35.5 37.75 41.96C37.85 43.01 37.97 44.08 38.12 45.17C43.6364 43.7853 49.234 42.7466 54.88 42.06C58.737 36.6136 62.9991 31.4657 67.63 26.66C67.4111 26.482 67.191 26.3053 66.97 26.13C61.89 22.11 57.17 19.53 53.15 18.37ZM75 19.77C74.4 19.27 73.79 18.77 73.18 18.29C67.46 13.77 61.6 10.4 55.94 8.75999C50.24 7.10999 44.41 7.10999 39.28 9.89999C34.15 12.68 30.95 17.57 29.23 23.24C27.51 28.88 27.13 35.62 27.79 42.89C27.95 44.59 28.16 46.33 28.44 48.12C26.74 48.72 25.1 49.37 23.54 50.04C16.83 52.91 11.08 56.46 6.94 60.66C2.78 64.87 0 70 0 75.84C0 81.67 2.78 86.81 6.94 91.03C11.08 95.23 16.83 98.77 23.54 101.65C25.1 102.32 26.74 102.96 28.44 103.57C28.1704 105.306 27.9536 107.05 27.79 108.8C27.13 116.06 27.51 122.8 29.23 128.45C30.95 134.12 34.15 139.01 39.28 141.78C44.41 144.56 50.25 144.57 55.94 142.92C61.6 141.27 67.46 137.92 73.18 133.39L75 131.9C75.6 132.41 76.21 132.9 76.82 133.39C82.54 137.91 88.4 141.27 94.06 142.92C99.75 144.57 105.59 144.56 110.72 141.78C115.85 139.01 119.05 134.12 120.77 128.45C122.49 122.81 122.87 116.06 122.21 108.8C122.047 107.05 121.83 105.306 121.56 103.57C123.213 102.983 124.848 102.342 126.46 101.65C133.17 98.77 138.92 95.22 143.06 91.03C147.22 86.81 150 81.67 150 75.83C150 70.01 147.22 64.87 143.06 60.65C138.92 56.45 133.17 52.9 126.46 50.03C124.846 49.3408 123.212 48.7005 121.56 48.11C121.83 46.32 122.05 44.58 122.21 42.88C122.87 35.61 122.49 28.88 120.77 23.23C119.05 17.56 115.85 12.67 110.72 9.88999C105.6 7.10999 99.75 7.10999 94.06 8.75999C88.4 10.4 82.54 13.76 76.82 18.29L75 19.78V19.77ZM75 33.42C72.75 35.72 70.5 38.25 68.28 40.97C72.7582 40.7927 77.2418 40.7927 81.72 40.97C79.5929 38.3551 77.3507 35.8359 75 33.42ZM95.12 42.06C91.02 36.32 86.72 31.14 82.37 26.66L83.02 26.13C88.12 22.11 92.82 19.53 96.85 18.37C100.84 17.21 103.8 17.52 105.95 18.69C108.11 19.85 109.99 22.16 111.2 26.14C112.42 30.15 112.84 35.5 112.25 41.96C112.15 43.01 112.03 44.08 111.88 45.16C106.363 43.7787 100.766 42.7433 95.12 42.06ZM89.49 51.5C79.8509 50.6024 70.1491 50.6024 60.51 51.5C55.3605 59.2027 50.9063 67.3481 47.2 75.84C50.9068 84.3265 55.3575 92.4683 60.5 100.17C70.1458 101.068 79.8542 101.068 89.5 100.17C94.6454 92.47 99.0962 84.328 102.8 75.84C99.0938 67.35 94.6431 59.2048 89.5 51.5H89.49ZM107.73 62.88C106.075 59.6385 104.317 56.4502 102.46 53.32C105.06 53.82 107.57 54.38 109.98 55C109.35 57.56 108.6 60.2 107.73 62.88ZM107.73 88.79C106.077 92.0362 104.32 95.2278 102.46 98.36C105.06 97.86 107.57 97.3 109.98 96.67C109.322 94.0178 108.572 91.3895 107.73 88.79ZM119.53 93.66C117.976 87.5935 116.012 81.6397 113.65 75.84C116.11 69.74 118.08 63.75 119.53 58.02C120.56 58.4 121.56 58.81 122.53 59.22C128.49 61.78 133 64.69 135.94 67.67C138.86 70.63 140 73.39 140 75.84C140 78.29 138.86 81.04 135.94 84C133 86.99 128.49 89.9 122.53 92.46C121.539 92.8816 120.539 93.2817 119.53 93.66ZM111.88 106.51C106.364 107.897 100.766 108.936 95.12 109.62C91.02 115.36 86.72 120.53 82.37 125.02L83.03 125.54C88.11 129.57 92.83 132.14 96.85 133.31C100.84 134.47 103.8 134.16 105.95 132.99C108.11 131.82 109.99 129.51 111.2 125.53C112.43 121.53 112.84 116.17 112.25 109.71C112.15 108.641 112.026 107.574 111.88 106.51ZM75 118.26C77.25 115.96 79.5 113.43 81.72 110.71C77.2418 110.888 72.7582 110.888 68.28 110.71C70.5 113.43 72.75 115.95 75 118.26ZM47.54 98.36C45.6811 95.2274 43.9235 92.0357 42.27 88.79C41.4 91.49 40.65 94.11 40.02 96.67C42.42 97.3 44.94 97.86 47.54 98.36ZM38.12 106.51C43.636 107.897 49.2337 108.936 54.88 109.62C58.98 115.36 63.27 120.53 67.63 125.02C67.4111 125.195 67.1911 125.368 66.97 125.54C61.89 129.57 57.17 132.14 53.15 133.31C49.15 134.47 46.2 134.16 44.04 132.99C41.88 131.82 40.01 129.51 38.79 125.53C37.57 121.53 37.16 116.17 37.75 109.71C37.8503 108.641 37.9737 107.574 38.12 106.51ZM30.47 93.66C31.92 87.92 33.88 81.94 36.35 75.84C33.9881 70.0402 32.0236 64.0865 30.47 58.02C29.4625 58.401 28.4623 58.8011 27.47 59.22C21.51 61.78 17 64.69 14.06 67.67C11.14 70.63 10 73.39 10 75.84C10 78.29 11.14 81.04 14.06 84C17 86.99 21.51 89.9 27.47 92.46C28.44 92.87 29.44 93.27 30.47 93.66ZM40.02 55.01C40.65 57.56 41.4 60.2 42.27 62.88C43.9246 59.6381 45.6821 56.4498 47.54 53.32C44.94 53.82 42.43 54.38 40.02 55.01ZM60 75.84C60 71.8617 61.5803 68.0464 64.3934 65.2334C67.2064 62.4203 71.0218 60.84 75 60.84C78.9782 60.84 82.7936 62.4203 85.6066 65.2334C88.4196 68.0464 90 71.8617 90 75.84C90 79.8182 88.4196 83.6335 85.6066 86.4466C82.7936 89.2596 78.9782 90.84 75 90.84C71.0218 90.84 67.2064 89.2596 64.3934 86.4466C61.5803 83.6335 60 79.8182 60 75.84ZM75 70.84C73.6739 70.84 72.4021 71.3668 71.4645 72.3045C70.5268 73.2421 70 74.5139 70 75.84C70 77.1661 70.5268 78.4378 71.4645 79.3755C72.4021 80.3132 73.6739 80.84 75 80.84C76.3261 80.84 77.5979 80.3132 78.5355 79.3755C79.4732 78.4378 80 77.1661 80 75.84C80 74.5139 79.4732 73.2421 78.5355 72.3045C77.5979 71.3668 76.3261 70.84 75 70.84Z" fill="#F5F5F5"/>
</svg>
